<?xml version="1.0" encoding="UTF-8" standalone="no"?>
<!-- Created with Inkscape (http://www.inkscape.org/) -->

<svg
   xmlns:dc="http://purl.org/dc/elements/1.1/"
   xmlns:cc="http://creativecommons.org/ns#"
   xmlns:rdf="http://www.w3.org/1999/02/22-rdf-syntax-ns#"
   xmlns:svg="http://www.w3.org/2000/svg"
   xmlns="http://www.w3.org/2000/svg"
   xmlns:sodipodi="http://sodipodi.sourceforge.net/DTD/sodipodi-0.dtd"
   xmlns:inkscape="http://www.inkscape.org/namespaces/inkscape"
   width="237.86678"
   height="156.32803"
   id="svg3564"
   version="1.1"
   inkscape:version="0.48.5 r10040"
   sodipodi:docname="Novo documento 3">
  <defs
     id="defs3566" />
  <sodipodi:namedview
     id="base"
     pagecolor="#ffffff"
     bordercolor="#666666"
     borderopacity="1.0"
     inkscape:pageopacity="0.0"
     inkscape:pageshadow="2"
     inkscape:zoom="0.98994949"
     inkscape:cx="206.00401"
     inkscape:cy="1.4796913"
     inkscape:document-units="px"
     inkscape:current-layer="layer1"
     showgrid="false"
     fit-margin-top="0"
     fit-margin-left="0"
     fit-margin-right="0"
     fit-margin-bottom="0"
     inkscape:window-width="1366"
     inkscape:window-height="715"
     inkscape:window-x="-8"
     inkscape:window-y="-8"
     inkscape:window-maximized="1" />
  <metadata
     id="metadata3569">
    <rdf:RDF>
      <cc:Work
         rdf:about="">
        <dc:format>image/svg+xml</dc:format>
        <dc:type
           rdf:resource="http://purl.org/dc/dcmitype/StillImage" />
        <dc:title></dc:title>
      </cc:Work>
    </rdf:RDF>
  </metadata>
  <g
     inkscape:label="Camada 1"
     inkscape:groupmode="layer"
     id="layer1"
     transform="translate(-204.57454,-383.11621)">
    <g
       inkscape:export-ydpi="90"
       inkscape:export-xdpi="90"
       inkscape:export-filename="C:\Users\Cristiano\Desktop\Lailla\noivados.png"
       transform="matrix(0.82026404,0,0,0.83970668,-22.770256,-194.53874)"
       id="g5621">
      <text
         inkscape:export-ydpi="90"
         inkscape:export-xdpi="90"
         inkscape:export-filename="C:\Users\Cristiano\Desktop\Lailla\LogoVersao1.png"
         sodipodi:linespacing="125%"
         id="text5623"
         y="858.79352"
         x="420.58841"
         style="font-size:42.15070343px;font-style:normal;font-weight:normal;line-height:125%;letter-spacing:0px;word-spacing:0px;fill:#02a8f3;fill-opacity:1;stroke:none;font-family:Sans"
         xml:space="preserve"><tspan
           id="tspan5625"
           style="font-style:normal;font-variant:normal;font-weight:normal;font-stretch:normal;text-align:center;text-anchor:middle;fill:#02a8f3;fill-opacity:1;font-family:BlackJack;-inkscape-font-specification:BlackJack"
           y="858.79352"
           x="420.58841"
           sodipodi:role="line">Lailla <tspan
   id="tspan5627"
   style="fill:#ffffff;fill-opacity:1">Fotografias</tspan></tspan></text>
      <rect
         inkscape:export-ydpi="90"
         inkscape:export-xdpi="90"
         inkscape:export-filename="C:\Users\Cristiano\Desktop\Lailla\LogoVersao1.png"
         style="fill:#48524f;fill-opacity:1;stroke:none"
         id="rect5629"
         width="65.563362"
         height="49.837585"
         x="389.37283"
         y="687.92468"
         ry="9.8548889" />
      <rect
         inkscape:export-ydpi="90"
         inkscape:export-xdpi="90"
         inkscape:export-filename="C:\Users\Cristiano\Desktop\Lailla\LogoVersao1.png"
         style="fill:#48524f;fill-opacity:1;stroke:none"
         id="rect5631"
         width="9.2184563"
         height="7.7326188"
         x="465.62711"
         y="695.55933"
         ry="1.5290492" />
      <rect
         inkscape:export-ydpi="90"
         inkscape:export-xdpi="90"
         inkscape:export-filename="C:\Users\Cristiano\Desktop\Lailla\LogoVersao1.png"
         ry="2.2461214"
         y="696.68475"
         x="462.76471"
         height="11.358956"
         width="14.943169"
         id="rect5633"
         style="fill:#ffb700;fill-opacity:1;stroke:none" />
      <rect
         inkscape:export-ydpi="90"
         inkscape:export-xdpi="90"
         inkscape:export-filename="C:\Users\Cristiano\Desktop\Lailla\LogoVersao1.png"
         ry="22.110802"
         y="699.28949"
         x="348.60431"
         height="111.8175"
         width="147.10043"
         id="rect5635"
         style="fill:#02a8f3;fill-opacity:1;stroke:none" />
      <rect
         inkscape:export-ydpi="90"
         inkscape:export-xdpi="90"
         inkscape:export-filename="C:\Users\Cristiano\Desktop\Lailla\LogoVersao1.png"
         ry="2.1723225"
         y="711.9939"
         x="459.59875"
         height="10.985747"
         width="25.256184"
         id="rect5637"
         style="fill:#ffffff;fill-opacity:1;stroke:none" />
      <rect
         inkscape:export-ydpi="90"
         inkscape:export-xdpi="90"
         inkscape:export-filename="C:\Users\Cristiano\Desktop\Lailla\LogoVersao1.png"
         style="fill:#f9f9f9;fill-opacity:1;stroke:none"
         id="rect5639"
         width="18.72056"
         height="8.14293"
         x="462.86658"
         y="713.41528"
         ry="1.6101836" />
      <rect
         inkscape:export-ydpi="90"
         inkscape:export-xdpi="90"
         inkscape:export-filename="C:\Users\Cristiano\Desktop\Lailla\LogoVersao1.png"
         ry="0.7489503"
         y="714.42041"
         x="465.88971"
         height="3.7875493"
         width="12.674261"
         id="rect5641"
         style="fill:#ffffff;fill-opacity:1;stroke:none" />
      <g
         style="fill:#ffffff"
         transform="matrix(0.4100706,0,0,0.4100706,264.19519,646.56654)"
         id="g5643">
        <path
           transform="matrix(0.62266277,0.09790058,-0.09790058,0.62266277,407.0702,60.481398)"
           inkscape:transform-center-y="-0.11645645"
           inkscape:transform-center-x="9.0557468"
           d="m 86.571425,383.50503 c -4.491667,6.13148 -19.983611,88.70482 -27.22144,91.02515 -7.23783,2.32034 -67.8515379,-55.85468 -75.070925,-58.23178 -7.219387,-2.3771 -90.53857,8.40575 -94.98195,2.23919 -4.44339,-6.16656 32.153685,-81.79069 32.183525,-89.3913 0.02984,-7.60061 -35.972305,-83.50978 -31.480635,-89.64126 4.49167,-6.13148 87.723609,5.30526 94.961439,2.98492 7.2378296,-2.32033 68.306462,-60.01763 75.525849,-57.64053 7.219387,2.3771 22.062486,85.06952 26.50587,91.23608 4.443384,6.16657 78.188012,46.41684 78.158172,54.01745 -0.0298,7.60061 -74.088238,47.2706 -78.579905,53.40208 z"
           inkscape:randomized="0"
           inkscape:rounded="0.08"
           inkscape:flatsided="false"
           sodipodi:arg2="1.2605631"
           sodipodi:arg1="0.63224455"
           sodipodi:r2="152.29536"
           sodipodi:r1="91.377213"
           sodipodi:cy="329.50504"
           sodipodi:cx="12.857143"
           sodipodi:sides="5"
           id="path5645"
           style="fill:#ffffff;fill-opacity:1;stroke:none"
           sodipodi:type="star" />
        <path
           sodipodi:type="star"
           style="fill:#ffffff;fill-opacity:1;stroke:none"
           id="path5647"
           sodipodi:sides="5"
           sodipodi:cx="12.857143"
           sodipodi:cy="329.50504"
           sodipodi:r1="91.377213"
           sodipodi:r2="152.29536"
           sodipodi:arg1="0.63224455"
           sodipodi:arg2="1.2605631"
           inkscape:flatsided="false"
           inkscape:rounded="0.08"
           inkscape:randomized="0"
           d="m 86.571425,383.50503 c -4.491667,6.13148 -19.983611,88.70482 -27.22144,91.02515 -7.23783,2.32034 -67.8515379,-55.85468 -75.070925,-58.23178 -7.219387,-2.3771 -90.53857,8.40575 -94.98195,2.23919 -4.44339,-6.16656 32.153685,-81.79069 32.183525,-89.3913 0.02984,-7.60061 -35.972305,-83.50978 -31.480635,-89.64126 4.49167,-6.13148 87.723609,5.30526 94.961439,2.98492 7.2378296,-2.32033 68.306462,-60.01763 75.525849,-57.64053 7.219387,2.3771 22.062486,85.06952 26.50587,91.23608 4.443384,6.16657 78.188012,46.41684 78.158172,54.01745 -0.0298,7.60061 -74.088238,47.2706 -78.579905,53.40208 z"
           inkscape:transform-center-x="10.760229"
           inkscape:transform-center-y="-18.217516"
           transform="matrix(0.4250577,0.46542389,-0.46542389,0.4250577,534.67406,117.44353)" />
      </g>
      <g
         id="g5649"
         transform="matrix(0.29761531,0,0,0.29761531,307.51301,676.35704)"
         style="fill:#48524f;fill-opacity:1">
        <path
           sodipodi:type="star"
           style="fill:#48524f;fill-opacity:1;stroke:none"
           id="path5651"
           sodipodi:sides="5"
           sodipodi:cx="12.857143"
           sodipodi:cy="329.50504"
           sodipodi:r1="91.377213"
           sodipodi:r2="152.29536"
           sodipodi:arg1="0.63224455"
           sodipodi:arg2="1.2605631"
           inkscape:flatsided="false"
           inkscape:rounded="0.08"
           inkscape:randomized="0"
           d="m 86.571425,383.50503 c -4.491667,6.13148 -19.983611,88.70482 -27.22144,91.02515 -7.23783,2.32034 -67.8515379,-55.85468 -75.070925,-58.23178 -7.219387,-2.3771 -90.53857,8.40575 -94.98195,2.23919 -4.44339,-6.16656 32.153685,-81.79069 32.183525,-89.3913 0.02984,-7.60061 -35.972305,-83.50978 -31.480635,-89.64126 4.49167,-6.13148 87.723609,5.30526 94.961439,2.98492 7.2378296,-2.32033 68.306462,-60.01763 75.525849,-57.64053 7.219387,2.3771 22.062486,85.06952 26.50587,91.23608 4.443384,6.16657 78.188012,46.41684 78.158172,54.01745 -0.0298,7.60061 -74.088238,47.2706 -78.579905,53.40208 z"
           inkscape:transform-center-x="9.0557468"
           inkscape:transform-center-y="-0.11645645"
           transform="matrix(0.62266277,0.09790058,-0.09790058,0.62266277,407.0702,60.481398)" />
        <path
           transform="matrix(0.4250577,0.46542389,-0.46542389,0.4250577,534.67406,117.44353)"
           inkscape:transform-center-y="-18.217516"
           inkscape:transform-center-x="10.760229"
           d="m 86.571425,383.50503 c -4.491667,6.13148 -19.983611,88.70482 -27.22144,91.02515 -7.23783,2.32034 -67.8515379,-55.85468 -75.070925,-58.23178 -7.219387,-2.3771 -90.53857,8.40575 -94.98195,2.23919 -4.44339,-6.16656 32.153685,-81.79069 32.183525,-89.3913 0.02984,-7.60061 -35.972305,-83.50978 -31.480635,-89.64126 4.49167,-6.13148 87.723609,5.30526 94.961439,2.98492 7.2378296,-2.32033 68.306462,-60.01763 75.525849,-57.64053 7.219387,2.3771 22.062486,85.06952 26.50587,91.23608 4.443384,6.16657 78.188012,46.41684 78.158172,54.01745 -0.0298,7.60061 -74.088238,47.2706 -78.579905,53.40208 z"
           inkscape:randomized="0"
           inkscape:rounded="0.08"
           inkscape:flatsided="false"
           sodipodi:arg2="1.2605631"
           sodipodi:arg1="0.63224455"
           sodipodi:r2="152.29536"
           sodipodi:r1="91.377213"
           sodipodi:cy="329.50504"
           sodipodi:cx="12.857143"
           sodipodi:sides="5"
           id="path5653"
           style="fill:#48524f;fill-opacity:1;stroke:none"
           sodipodi:type="star" />
      </g>
      <g
         style="fill:#ffb700;fill-opacity:1"
         transform="matrix(0.22381883,0,0,0.22381883,335.93944,695.90645)"
         id="g5655">
        <path
           transform="matrix(0.62266277,0.09790058,-0.09790058,0.62266277,407.0702,60.481398)"
           inkscape:transform-center-y="-0.11645645"
           inkscape:transform-center-x="9.0557468"
           d="m 86.571425,383.50503 c -4.491667,6.13148 -19.983611,88.70482 -27.22144,91.02515 -7.23783,2.32034 -67.8515379,-55.85468 -75.070925,-58.23178 -7.219387,-2.3771 -90.53857,8.40575 -94.98195,2.23919 -4.44339,-6.16656 32.153685,-81.79069 32.183525,-89.3913 0.02984,-7.60061 -35.972305,-83.50978 -31.480635,-89.64126 4.49167,-6.13148 87.723609,5.30526 94.961439,2.98492 7.2378296,-2.32033 68.306462,-60.01763 75.525849,-57.64053 7.219387,2.3771 22.062486,85.06952 26.50587,91.23608 4.443384,6.16657 78.188012,46.41684 78.158172,54.01745 -0.0298,7.60061 -74.088238,47.2706 -78.579905,53.40208 z"
           inkscape:randomized="0"
           inkscape:rounded="0.08"
           inkscape:flatsided="false"
           sodipodi:arg2="1.2605631"
           sodipodi:arg1="0.63224455"
           sodipodi:r2="152.29536"
           sodipodi:r1="91.377213"
           sodipodi:cy="329.50504"
           sodipodi:cx="12.857143"
           sodipodi:sides="5"
           id="path5657"
           style="fill:#ffb700;fill-opacity:1;stroke:none"
           sodipodi:type="star" />
        <path
           sodipodi:type="star"
           style="fill:#ffb700;fill-opacity:1;stroke:none"
           id="path5659"
           sodipodi:sides="5"
           sodipodi:cx="12.857143"
           sodipodi:cy="329.50504"
           sodipodi:r1="91.377213"
           sodipodi:r2="152.29536"
           sodipodi:arg1="0.63224455"
           sodipodi:arg2="1.2605631"
           inkscape:flatsided="false"
           inkscape:rounded="0.08"
           inkscape:randomized="0"
           d="m 86.571425,383.50503 c -4.491667,6.13148 -19.983611,88.70482 -27.22144,91.02515 -7.23783,2.32034 -67.8515379,-55.85468 -75.070925,-58.23178 -7.219387,-2.3771 -90.53857,8.40575 -94.98195,2.23919 -4.44339,-6.16656 32.153685,-81.79069 32.183525,-89.3913 0.02984,-7.60061 -35.972305,-83.50978 -31.480635,-89.64126 4.49167,-6.13148 87.723609,5.30526 94.961439,2.98492 7.2378296,-2.32033 68.306462,-60.01763 75.525849,-57.64053 7.219387,2.3771 22.062486,85.06952 26.50587,91.23608 4.443384,6.16657 78.188012,46.41684 78.158172,54.01745 -0.0298,7.60061 -74.088238,47.2706 -78.579905,53.40208 z"
           inkscape:transform-center-x="10.760229"
           inkscape:transform-center-y="-18.217516"
           transform="matrix(0.4250577,0.46542389,-0.46542389,0.4250577,534.67406,117.44353)" />
      </g>
    </g>
  </g>
</svg>
