<?xml version="1.0" encoding="UTF-8" standalone="no"?>
<svg
   xmlns:dc="http://purl.org/dc/elements/1.1/"
   xmlns:cc="http://creativecommons.org/ns#"
   xmlns:rdf="http://www.w3.org/1999/02/22-rdf-syntax-ns#"
   xmlns:svg="http://www.w3.org/2000/svg"
   xmlns="http://www.w3.org/2000/svg"
   xmlns:sodipodi="http://sodipodi.sourceforge.net/DTD/sodipodi-0.dtd"
   xmlns:inkscape="http://www.inkscape.org/namespaces/inkscape"
   version="1.1"
   viewBox="0 0 465.647 465.647"
   enable-background="new 0 0 465.647 465.647"
   id="svg3861"
   inkscape:version="0.48.5 r10040"
   width="100%"
   height="100%"
   sodipodi:docname="balloons.svg">
  <metadata
     id="metadata3881">
    <rdf:RDF>
      <cc:Work
         rdf:about="">
        <dc:format>image/svg+xml</dc:format>
        <dc:type
           rdf:resource="http://purl.org/dc/dcmitype/StillImage" />
      </cc:Work>
    </rdf:RDF>
  </metadata>
  <defs
     id="defs3879" />
  <sodipodi:namedview
     pagecolor="#ffffff"
     bordercolor="#666666"
     borderopacity="1"
     objecttolerance="10"
     gridtolerance="10"
     guidetolerance="10"
     inkscape:pageopacity="0"
     inkscape:pageshadow="2"
     inkscape:window-width="763"
     inkscape:window-height="480"
     id="namedview3877"
     showgrid="false"
     inkscape:zoom="0.50682169"
     inkscape:cx="232.8235"
     inkscape:cy="232.8235"
     inkscape:window-x="0"
     inkscape:window-y="0"
     inkscape:window-maximized="0"
     inkscape:current-layer="svg3861" />
  <g
     id="g3863"
     style="fill:#ffb700;fill-opacity:1"
     transform="matrix(0.92087878,0,0,0.92087878,18.4212,17.111912)">
    <path
       d="m 190.472,51.576 c 5.184,1.71 10.09,3.898 14.583,6.504 1.185,0.687 2.479,1.014 3.756,1.014 2.586,0 5.103,-1.34 6.495,-3.738 2.078,-3.583 0.858,-8.172 -2.725,-10.251 -5.388,-3.125 -11.246,-5.74 -17.412,-7.774 -3.932,-1.296 -8.174,0.839 -9.472,4.773 -1.296,3.934 0.842,8.175 4.775,9.472 z"
       id="path3865"
       style="fill:#ffb700;fill-opacity:1"
       inkscape:connector-curvature="0" />
    <path
       d="m 241.324,131.864 c 0,11.188 -1.299,22.624 -3.861,33.988 -0.911,4.041 1.626,8.055 5.667,8.966 0.555,0.125 1.11,0.185 1.656,0.185 3.429,0 6.524,-2.367 7.31,-5.852 2.806,-12.445 4.229,-24.99 4.229,-37.287 0,-26.19 -6.392,-48.006 -18.998,-64.839 -2.482,-3.315 -7.184,-3.991 -10.499,-1.508 -3.315,2.483 -3.991,7.184 -1.508,10.499 10.619,14.181 16.004,32.971 16.004,55.848 z"
       id="path3867"
       style="fill:#ffb700;fill-opacity:1"
       inkscape:connector-curvature="0" />
    <path
       d="m 133.014,246.387 c -18.639,-12.713 -35.305,-37.093 -44.583,-65.214 -1.298,-3.934 -5.541,-6.07 -9.473,-4.772 -3.934,1.298 -6.07,5.539 -4.772,9.473 10.429,31.609 28.791,58.182 50.376,72.906 1.293,0.882 2.764,1.305 4.219,1.305 2.396,0 4.751,-1.146 6.203,-3.274 2.333,-3.424 1.452,-8.09 -1.97,-10.424 z"
       id="path3869"
       style="fill:#ffb700;fill-opacity:1"
       inkscape:connector-curvature="0" />
    <path
       d="M 394.91,122.486 C 372.076,100.247 340.083,88 304.824,88 c -7.438,0 -14.791,0.552 -21.94,1.626 C 276.931,68.015 266.162,49.341 250.91,34.486 228.076,12.247 196.083,0 160.824,0 125.565,0 93.572,12.247 70.738,34.486 46.261,58.325 33.323,91.998 33.323,131.864 c 0,40.601 13.306,82.862 36.507,115.947 19.778,28.206 44.181,46.355 70.241,52.677 -1.751,3.287 -2.748,7.034 -2.748,11.011 v 16 c 0,4.142 3.358,7.5 7.5,7.5 h 8.055 c -0.611,4.613 -1.784,7.741 -3.077,11.189 -2.099,5.594 -4.478,11.936 -4.478,23.958 0,12.029 2.378,18.373 4.477,23.971 1.891,5.042 3.523,9.396 3.523,18.706 0,9.31 -1.632,13.664 -3.523,18.706 -2.099,5.598 -4.477,11.942 -4.477,23.971 0,4.142 3.358,7.5 7.5,7.5 4.142,0 7.5,-3.358 7.5,-7.5 0,-9.309 1.632,-13.663 3.522,-18.705 2.099,-5.598 4.478,-11.942 4.478,-23.971 0,-12.029 -2.379,-18.374 -4.478,-23.971 -1.89,-5.042 -3.522,-9.396 -3.522,-18.705 0,-9.301 1.632,-13.652 3.522,-18.689 1.612,-4.297 3.385,-9.045 4.123,-16.458 h 8.855 c 4.142,0 7.5,-3.358 7.5,-7.5 v -16 c 0,-3.977 -0.997,-7.724 -2.748,-11.011 3.782,-0.917 7.529,-2.083 11.233,-3.494 19.706,48.458 53.874,82.187 91.291,91.439 -1.769,3.3 -2.776,7.067 -2.776,11.067 v 16 c 0,4.142 3.358,7.5 7.5,7.5 h 8.055 c -0.611,4.613 -1.784,7.741 -3.077,11.189 -2.099,5.594 -4.478,11.936 -4.478,23.958 0,4.142 3.358,7.5 7.5,7.5 4.142,0 7.5,-3.358 7.5,-7.5 0,-9.301 1.632,-13.652 3.522,-18.689 1.612,-4.297 3.385,-9.045 4.123,-16.458 h 8.855 c 4.142,0 7.5,-3.358 7.5,-7.5 v -16 c 0,-3.977 -0.997,-7.724 -2.748,-11.011 26.06,-6.322 50.463,-24.472 70.241,-52.677 23.2,-33.085 36.506,-75.346 36.506,-115.947 0.002,-39.869 -12.936,-73.542 -37.412,-97.381 z M 82.112,239.199 C 60.639,208.577 48.324,169.455 48.324,131.864 48.324,96.138 59.694,66.181 81.204,45.232 101.221,25.736 129.497,15 160.824,15 c 31.327,0 59.604,10.736 79.62,30.231 21.51,20.95 32.88,50.907 32.88,86.632 0,37.592 -12.315,76.714 -33.788,107.335 C 217.468,270.669 189.515,288 160.824,288 132.133,288 104.179,270.669 82.112,239.199 z m 87.212,72.301 v 8.5 h -17 v -8.5 c 0,-4.687 3.813,-8.5 8.5,-8.5 4.687,0 8.5,3.813 8.5,8.5 z m 144,88 v 8.5 h -17 v -8.5 c 0,-4.687 3.813,-8.5 8.5,-8.5 4.687,0 8.5,3.813 8.5,8.5 z m 70.212,-72.301 C 361.468,358.669 333.515,376 304.824,376 c -20.222,0 -40.459,-8.813 -58.523,-25.485 -16.234,-14.983 -30.29,-36.135 -39.884,-59.906 4.884,-2.742 9.666,-5.924 14.321,-9.535 10.728,28.423 27.899,52.114 47.824,65.704 1.293,0.882 2.764,1.305 4.219,1.305 2.396,0 4.751,-1.146 6.203,-3.274 2.334,-3.422 1.452,-8.088 -1.97,-10.422 -18.363,-12.525 -34.806,-36.376 -44.161,-63.971 6.683,-6.604 13.034,-14.147 18.965,-22.605 23.2,-33.085 36.506,-75.346 36.506,-115.947 0,-9.561 -0.752,-18.76 -2.221,-27.559 6.099,-0.867 12.372,-1.305 18.721,-1.305 31.327,0 59.604,10.736 79.62,30.231 21.51,20.95 32.88,50.907 32.88,86.632 0,37.593 -12.315,76.715 -33.788,107.336 z"
       id="path3871"
       style="fill:#ffb700;fill-opacity:1"
       inkscape:connector-curvature="0" />
    <path
       d="m 381.326,155.024 c -2.482,-3.315 -7.184,-3.991 -10.499,-1.508 -3.315,2.483 -3.991,7.184 -1.508,10.499 10.62,14.181 16.005,32.971 16.005,55.848 0,11.188 -1.299,22.624 -3.861,33.988 -0.911,4.041 1.626,8.055 5.667,8.966 0.555,0.125 1.11,0.185 1.656,0.185 3.429,0 6.524,-2.367 7.31,-5.852 2.806,-12.445 4.229,-24.99 4.229,-37.287 -10e-4,-26.19 -6.393,-48.005 -18.999,-64.839 z"
       id="path3873"
       style="fill:#ffb700;fill-opacity:1"
       inkscape:connector-curvature="0" />
    <path
       d="m 356.582,133.105 c -5.388,-3.125 -11.246,-5.74 -17.412,-7.774 -3.933,-1.296 -8.174,0.839 -9.472,4.773 -1.297,3.934 0.84,8.174 4.773,9.472 5.184,1.71 10.09,3.898 14.583,6.504 1.185,0.687 2.479,1.014 3.756,1.014 2.586,0 5.103,-1.34 6.495,-3.738 2.08,-3.583 0.86,-8.172 -2.723,-10.251 z"
       id="path3875"
       style="fill:#ffb700;fill-opacity:1"
       inkscape:connector-curvature="0" />
  </g>
</svg>
