<?xml version="1.0" encoding="UTF-8" standalone="no"?>
<!-- Generator: Adobe Illustrator 19.0.0, SVG Export Plug-In . SVG Version: 6.00 Build 0)  -->

<svg
   xmlns:dc="http://purl.org/dc/elements/1.1/"
   xmlns:cc="http://creativecommons.org/ns#"
   xmlns:rdf="http://www.w3.org/1999/02/22-rdf-syntax-ns#"
   xmlns:svg="http://www.w3.org/2000/svg"
   xmlns="http://www.w3.org/2000/svg"
   xmlns:sodipodi="http://sodipodi.sourceforge.net/DTD/sodipodi-0.dtd"
   xmlns:inkscape="http://www.inkscape.org/namespaces/inkscape"
   version="1.1"
   id="Layer_1"
   x="0px"
   y="0px"
   viewBox="0 0 512.026 512.026"
   style="enable-background:new 0 0 512.026 512.026;"
   xml:space="preserve"
   inkscape:version="0.48.5 r10040"
   width="100%"
   height="100%"
   sodipodi:docname="gesture.svg"><metadata
   id="metadata4527"><rdf:RDF><cc:Work
       rdf:about=""><dc:format>image/svg+xml</dc:format><dc:type
         rdf:resource="http://purl.org/dc/dcmitype/StillImage" /></cc:Work></rdf:RDF></metadata><defs
   id="defs4525" /><sodipodi:namedview
   pagecolor="#ffffff"
   bordercolor="#666666"
   borderopacity="1"
   objecttolerance="10"
   gridtolerance="10"
   guidetolerance="10"
   inkscape:pageopacity="0"
   inkscape:pageshadow="2"
   inkscape:window-width="763"
   inkscape:window-height="480"
   id="namedview4523"
   showgrid="false"
   inkscape:zoom="0.46091409"
   inkscape:cx="256.013"
   inkscape:cy="256.013"
   inkscape:window-x="0"
   inkscape:window-y="0"
   inkscape:window-maximized="0"
   inkscape:current-layer="Layer_1" />
<g
   id="g4461"
   style="fill:#ffb700;fill-opacity:1"
   transform="matrix(0.81355896,0,0,0.81355896,47.731237,45.559771)">
	<g
   id="g4463"
   style="fill:#ffb700;fill-opacity:1">
		<g
   id="g4465"
   style="fill:#ffb700;fill-opacity:1">
			<path
   d="m 98.142,337.318 -60.723,35.046 c -4.079,2.355 -5.478,7.569 -3.123,11.657 1.579,2.739 4.446,4.267 7.398,4.267 1.442,0 2.91,-0.367 4.258,-1.143 l 60.723,-35.038 c 4.079,-2.355 5.478,-7.578 3.123,-11.657 -2.355,-4.087 -7.577,-5.487 -11.656,-3.132 z"
   id="path4467"
   style="fill:#ffb700;fill-opacity:1"
   inkscape:connector-curvature="0" />
			<path
   d="m 119.475,256.021 c 0,-4.71 -3.823,-8.533 -8.533,-8.533 L 8.533,247.479 c -4.71,0 -8.533,3.823 -8.533,8.533 0,4.719 3.823,8.533 8.533,8.533 l 102.409,0.009 c 4.71,0.001 8.533,-3.822 8.533,-8.533 z"
   id="path4469"
   style="fill:#ffb700;fill-opacity:1"
   inkscape:connector-curvature="0" />
			<path
   d="m 146.236,82.948 c 1.579,2.739 4.446,4.267 7.398,4.267 1.442,0 2.918,-0.367 4.258,-1.143 4.079,-2.355 5.478,-7.578 3.123,-11.656 l -21.35,-36.983 c -2.364,-4.079 -7.586,-5.487 -11.657,-3.123 -4.087,2.355 -5.478,7.578 -3.123,11.657 l 21.351,36.981 z"
   id="path4471"
   style="fill:#ffb700;fill-opacity:1"
   inkscape:connector-curvature="0" />
			<path
   d="m 37.427,139.669 86.315,49.852 c 1.34,0.776 2.807,1.143 4.258,1.143 2.953,0 5.82,-1.527 7.398,-4.267 2.355,-4.079 0.964,-9.301 -3.123,-11.648 L 45.96,124.889 c -4.07,-2.364 -9.31,-0.964 -11.656,3.123 -2.355,4.08 -0.964,9.302 3.123,11.657 z"
   id="path4473"
   style="fill:#ffb700;fill-opacity:1"
   inkscape:connector-curvature="0" />
			<path
   d="m 376.619,186.398 c 1.579,2.739 4.446,4.267 7.398,4.267 1.442,0 2.91,-0.367 4.258,-1.143 l 86.332,-49.835 c 4.087,-2.364 5.478,-7.578 3.123,-11.665 -2.355,-4.079 -7.578,-5.478 -11.657,-3.123 l -86.332,49.843 c -4.087,2.355 -5.478,7.577 -3.122,11.656 z"
   id="path4475"
   style="fill:#ffb700;fill-opacity:1"
   inkscape:connector-curvature="0" />
			<path
   d="m 354.142,86.071 c 1.348,0.777 2.816,1.143 4.258,1.143 2.953,0 5.82,-1.527 7.398,-4.267 l 21.35,-36.983 c 2.355,-4.079 0.956,-9.301 -3.123,-11.657 -4.096,-2.364 -9.301,-0.956 -11.657,3.123 l -21.35,36.983 c -2.354,4.081 -0.964,9.303 3.124,11.658 z"
   id="path4477"
   style="fill:#ffb700;fill-opacity:1"
   inkscape:connector-curvature="0" />
			<path
   d="m 344.038,495.381 c -0.23,-0.077 -23.868,-8.073 -39.33,-23.535 -15.326,-15.326 -23.1,-30.524 -23.1,-45.167 v -153.6 c 0,-1.749 0.358,-17.067 12.8,-17.067 9.156,0 12.774,17.741 12.826,17.732 l 8.533,110.925 c 0.358,4.685 4.395,8.235 9.165,7.851 4.693,-0.358 8.218,-4.463 7.851,-9.165 l -8.627,-111.684 c -2.022,-12.151 -10.564,-32.725 -29.747,-32.725 -23.629,0 -29.867,22.332 -29.867,34.133 v 153.6 c 0,19.337 9.455,38.588 28.1,57.233 18.278,18.287 44.877,27.29 46.003,27.665 0.896,0.299 1.809,0.435 2.696,0.435 3.576,0 6.904,-2.261 8.098,-5.837 1.494,-4.47 -0.929,-9.3 -5.401,-10.794 z"
   id="path4479"
   style="fill:#ffb700;fill-opacity:1"
   inkscape:connector-curvature="0" />
			<path
   d="m 217.609,238.946 c -19.183,0 -27.725,20.574 -29.841,33.476 l -8.533,110.933 c -0.367,4.702 3.157,8.806 7.851,9.165 4.608,0.35 8.806,-3.157 9.165,-7.851 l 8.439,-110.182 c 0.034,-0.188 3.661,-18.475 12.919,-18.475 12.006,0 12.774,14.251 12.8,17.067 v 153.6 c 0,14.643 -7.774,29.841 -23.1,45.167 -15.377,15.377 -39.108,23.458 -39.339,23.543 -4.463,1.502 -6.878,6.332 -5.385,10.795 1.195,3.567 4.523,5.828 8.09,5.828 0.896,0 1.801,-0.145 2.697,-0.435 1.126,-0.375 27.725,-9.378 46.003,-27.665 18.645,-18.645 28.1,-37.897 28.1,-57.233 v -153.6 c 0,-11.801 -6.238,-34.133 -29.866,-34.133 z"
   id="path4481"
   style="fill:#ffb700;fill-opacity:1"
   inkscape:connector-curvature="0" />
			<path
   d="M 491.529,496.653 389.035,419.785 c -5.402,-3.942 -11.247,-17.894 -13.653,-28.501 L 349.705,220.208 c -1.86,-9.318 -3.618,-18.33 -5.316,-26.999 -15.223,-77.901 -24.414,-124.928 -54.246,-124.928 -17.946,0 -25.6,7.654 -25.6,25.6 0,17.195 8.209,124.109 8.559,128.657 0.358,4.685 4.471,8.209 9.165,7.851 4.693,-0.358 8.218,-4.463 7.851,-9.165 -0.085,-1.109 -8.508,-110.797 -8.508,-127.343 0,-8.533 0.162,-8.533 8.533,-8.533 15.778,0 26.325,53.982 37.504,111.138 1.69,8.687 3.456,17.724 5.257,26.658 l 25.711,171.281 c 0.674,2.97 6.938,29.363 20.275,39.083 l 102.4,76.8 c 1.536,1.152 3.336,1.707 5.111,1.707 2.594,0 5.163,-1.178 6.835,-3.413 2.824,-3.774 2.064,-9.125 -1.707,-11.949 z"
   id="path4483"
   style="fill:#ffb700;fill-opacity:1"
   inkscape:connector-curvature="0" />
			<path
   d="m 466.057,387.162 c 1.348,0.777 2.816,1.143 4.258,1.143 2.953,0 5.82,-1.527 7.398,-4.267 2.355,-4.079 0.964,-9.301 -3.123,-11.657 l -60.715,-35.063 c -4.096,-2.355 -9.301,-0.956 -11.657,3.132 -2.355,4.079 -0.964,9.293 3.123,11.657 l 60.716,35.055 z"
   id="path4485"
   style="fill:#ffb700;fill-opacity:1"
   inkscape:connector-curvature="0" />
			<path
   d="M 503.492,247.497 H 401.075 c -4.71,0 -8.533,3.823 -8.533,8.533 0,4.71 3.823,8.533 8.533,8.533 h 102.417 c 4.71,0 8.533,-3.814 8.533,-8.533 10e-4,-4.711 -3.822,-8.533 -8.533,-8.533 z"
   id="path4487"
   style="fill:#ffb700;fill-opacity:1"
   inkscape:connector-curvature="0" />
			<path
   d="m 264.542,8.546 c 0,-4.71 -3.823,-8.533 -8.533,-8.533 -4.71,0 -8.533,3.823 -8.533,8.533 v 25.6 c 0,4.71 3.823,8.533 8.533,8.533 4.71,0 8.533,-3.823 8.533,-8.533 v -25.6 z"
   id="path4489"
   style="fill:#ffb700;fill-opacity:1"
   inkscape:connector-curvature="0" />
			<path
   d="m 221.875,68.279 c -29.833,0 -39.023,47.027 -54.246,124.928 -1.698,8.67 -3.456,17.681 -5.393,27.409 L 136.61,391.479 c -1.348,10.624 -7.97,24.738 -13.722,28.373 l -102.4,76.8 c -3.772,2.825 -4.531,8.175 -1.707,11.947 1.673,2.236 4.241,3.413 6.835,3.413 1.775,0 3.575,-0.555 5.111,-1.707 l 101.803,-76.39 c 11.785,-7.364 19.507,-28.399 20.983,-40.107 l 25.523,-170.257 c 1.877,-9.344 3.644,-18.381 5.333,-27.068 11.179,-57.156 21.726,-111.138 37.504,-111.138 8.371,0 8.533,0 8.533,8.533 0,16.546 -8.422,126.234 -8.508,127.343 -0.367,4.702 3.157,8.806 7.851,9.165 4.642,0.35 8.798,-3.157 9.165,-7.851 0.35,-4.548 8.559,-111.462 8.559,-128.657 0.002,-17.944 -7.652,-25.599 -25.598,-25.599 z"
   id="path4491"
   style="fill:#ffb700;fill-opacity:1"
   inkscape:connector-curvature="0" />
		</g>
	</g>
</g>
<g
   id="g4493">
</g>
<g
   id="g4495">
</g>
<g
   id="g4497">
</g>
<g
   id="g4499">
</g>
<g
   id="g4501">
</g>
<g
   id="g4503">
</g>
<g
   id="g4505">
</g>
<g
   id="g4507">
</g>
<g
   id="g4509">
</g>
<g
   id="g4511">
</g>
<g
   id="g4513">
</g>
<g
   id="g4515">
</g>
<g
   id="g4517">
</g>
<g
   id="g4519">
</g>
<g
   id="g4521">
</g>
</svg>