<?xml version="1.0" encoding="UTF-8" standalone="no"?>
<!-- Generator: Adobe Illustrator 18.0.0, SVG Export Plug-In . SVG Version: 6.00 Build 0)  -->

<svg
   xmlns:dc="http://purl.org/dc/elements/1.1/"
   xmlns:cc="http://creativecommons.org/ns#"
   xmlns:rdf="http://www.w3.org/1999/02/22-rdf-syntax-ns#"
   xmlns:svg="http://www.w3.org/2000/svg"
   xmlns="http://www.w3.org/2000/svg"
   xmlns:sodipodi="http://sodipodi.sourceforge.net/DTD/sodipodi-0.dtd"
   xmlns:inkscape="http://www.inkscape.org/namespaces/inkscape"
   version="1.1"
   id="Capa_1"
   x="0px"
   y="0px"
   viewBox="0 0 487.482 487.482"
   style="enable-background:new 0 0 487.482 487.482;"
   xml:space="preserve"
   inkscape:version="0.48.5 r10040"
   width="100%"
   height="100%"
   sodipodi:docname="landscape-image.svg"><metadata
   id="metadata5121"><rdf:RDF><cc:Work
       rdf:about=""><dc:format>image/svg+xml</dc:format><dc:type
         rdf:resource="http://purl.org/dc/dcmitype/StillImage" /></cc:Work></rdf:RDF></metadata><defs
   id="defs5119" /><sodipodi:namedview
   pagecolor="#ffffff"
   bordercolor="#666666"
   borderopacity="1"
   objecttolerance="10"
   gridtolerance="10"
   guidetolerance="10"
   inkscape:pageopacity="0"
   inkscape:pageshadow="2"
   inkscape:window-width="763"
   inkscape:window-height="480"
   id="namedview5117"
   showgrid="false"
   inkscape:zoom="0.48412044"
   inkscape:cx="243.741"
   inkscape:cy="243.741"
   inkscape:window-x="0"
   inkscape:window-y="0"
   inkscape:window-maximized="0"
   inkscape:current-layer="g5081" />
<g
   id="g5081"
   transform="matrix(0.86264728,0,0,0.86264728,35.115229,37.609692)">
	<path
   d="M 477.482,63.277 H 10 c -5.523,0 -10,4.478 -10,10 v 340.928 c 0,5.522 4.477,10 10,10 h 467.482 c 5.522,0 10,-4.478 10,-10 V 73.277 c 0,-5.522 -4.477,-10 -10,-10 z m -10,20 v 235.236 l -104.018,-80.07 c -3.364,-2.591 -7.996,-2.773 -11.555,-0.457 l -68.298,44.456 -134.745,-92.417 c -3.192,-2.189 -7.362,-2.34 -10.706,-0.384 L 20,258.777 V 83.277 H 467.482 z M 20,404.205 V 281.948 l 122.786,-71.841 135.024,92.608 c 3.337,2.286 7.723,2.34 11.111,0.134 l 67.959,-44.235 110.602,85.138 v 60.453 H 20 z"
   id="path5083"
   inkscape:connector-curvature="0"
   style="fill:#ffb700;fill-opacity:1" />
	<path
   d="m 280.707,218.281 c 26.063,0 47.266,-21.202 47.266,-47.264 0,-26.058 -21.203,-47.258 -47.266,-47.258 -26.062,0 -47.264,21.2 -47.264,47.258 0,26.062 21.202,47.264 47.264,47.264 z m 0,-74.521 c 15.034,0 27.266,12.228 27.266,27.258 0,15.033 -12.231,27.264 -27.266,27.264 -15.033,0 -27.264,-12.23 -27.264,-27.264 0,-15.031 12.231,-27.258 27.264,-27.258 z"
   id="path5085"
   inkscape:connector-curvature="0"
   style="fill:#ffb700;fill-opacity:1" />
</g>
<g
   id="g5087">
</g>
<g
   id="g5089">
</g>
<g
   id="g5091">
</g>
<g
   id="g5093">
</g>
<g
   id="g5095">
</g>
<g
   id="g5097">
</g>
<g
   id="g5099">
</g>
<g
   id="g5101">
</g>
<g
   id="g5103">
</g>
<g
   id="g5105">
</g>
<g
   id="g5107">
</g>
<g
   id="g5109">
</g>
<g
   id="g5111">
</g>
<g
   id="g5113">
</g>
<g
   id="g5115">
</g>
</svg>