<?xml version="1.0" encoding="UTF-8" standalone="no"?>
<!-- Generator: Adobe Illustrator 19.1.0, SVG Export Plug-In . SVG Version: 6.00 Build 0)  -->

<svg
   xmlns:dc="http://purl.org/dc/elements/1.1/"
   xmlns:cc="http://creativecommons.org/ns#"
   xmlns:rdf="http://www.w3.org/1999/02/22-rdf-syntax-ns#"
   xmlns:svg="http://www.w3.org/2000/svg"
   xmlns="http://www.w3.org/2000/svg"
   xmlns:sodipodi="http://sodipodi.sourceforge.net/DTD/sodipodi-0.dtd"
   xmlns:inkscape="http://www.inkscape.org/namespaces/inkscape"
   version="1.1"
   id="Layer_1"
   x="0px"
   y="0px"
   viewBox="0 0 64 64"
   enable-background="new 0 0 64 64"
   xml:space="preserve"
   inkscape:version="0.48.5 r10040"
   width="100%"
   height="100%"
   sodipodi:docname="wedding-rings.svg"><metadata
   id="metadata6339"><rdf:RDF><cc:Work
       rdf:about=""><dc:format>image/svg+xml</dc:format><dc:type
         rdf:resource="http://purl.org/dc/dcmitype/StillImage" /></cc:Work></rdf:RDF></metadata><defs
   id="defs6337" /><sodipodi:namedview
   pagecolor="#ffffff"
   bordercolor="#666666"
   borderopacity="1"
   objecttolerance="10"
   gridtolerance="10"
   guidetolerance="10"
   inkscape:pageopacity="0"
   inkscape:pageshadow="2"
   inkscape:window-width="763"
   inkscape:window-height="480"
   id="namedview6335"
   showgrid="false"
   inkscape:zoom="3.6875"
   inkscape:cx="32"
   inkscape:cy="32"
   inkscape:window-x="0"
   inkscape:window-y="0"
   inkscape:window-maximized="0"
   inkscape:current-layer="Layer_1" />
<g
   id="Wedding-rings"
   style="fill:#ffb700;fill-opacity:1"
   transform="matrix(0.87809889,0,0,0.87809889,4.0338915,4.2153034)">
	<circle
   cx="48.77615"
   cy="26.167459"
   r="1.5128281"
   id="circle6285"
   style="fill:#ffb700;fill-opacity:1"
   d="m 50.288978,26.167459 c 0,0.835512 -0.677316,1.512829 -1.512828,1.512829 -0.835512,0 -1.512828,-0.677317 -1.512828,-1.512829 0,-0.835511 0.677316,-1.512828 1.512828,-1.512828 0.835512,0 1.512828,0.677317 1.512828,1.512828 z"
   sodipodi:cx="48.77615"
   sodipodi:cy="26.167459"
   sodipodi:rx="1.5128281"
   sodipodi:ry="1.5128281" />
	<circle
   cx="15.13735"
   cy="26.167459"
   r="1.513118"
   id="circle6287"
   style="fill:#ffb700;fill-opacity:1"
   d="m 16.650468,26.167459 c 0,0.835672 -0.677446,1.513119 -1.513118,1.513119 -0.835672,0 -1.513118,-0.677447 -1.513118,-1.513119 0,-0.835672 0.677446,-1.513118 1.513118,-1.513118 0.835672,0 1.513118,0.677446 1.513118,1.513118 z"
   sodipodi:cx="15.13735"
   sodipodi:cy="26.167459"
   sodipodi:rx="1.513118"
   sodipodi:ry="1.513118" />
	<circle
   cx="51.285248"
   cy="16.863558"
   r="1.5130093"
   id="circle6289"
   style="fill:#ffb700;fill-opacity:1"
   d="m 52.798257,16.863558 c 0,0.835612 -0.677397,1.513009 -1.513009,1.513009 -0.835612,0 -1.51301,-0.677397 -1.51301,-1.513009 0,-0.835612 0.677398,-1.513009 1.51301,-1.513009 0.835612,0 1.513009,0.677397 1.513009,1.513009 z"
   sodipodi:cx="51.285248"
   sodipodi:cy="16.863558"
   sodipodi:rx="1.5130093"
   sodipodi:ry="1.5130093" />
	<circle
   cx="12.627455"
   cy="16.863508"
   r="1.5130687"
   id="circle6291"
   style="fill:#ffb700;fill-opacity:1"
   d="m 14.140523,16.863508 c 0,0.835645 -0.677423,1.513069 -1.513068,1.513069 -0.835645,0 -1.513069,-0.677424 -1.513069,-1.513069 0,-0.835645 0.677424,-1.513068 1.513069,-1.513068 0.835645,0 1.513068,0.677423 1.513068,1.513068 z"
   sodipodi:cx="12.627455"
   sodipodi:cy="16.863508"
   sodipodi:rx="1.5130687"
   sodipodi:ry="1.5130687" />
	<circle
   cx="47.037651"
   cy="6.4892588"
   r="1.513118"
   id="circle6293"
   style="fill:#ffb700;fill-opacity:1"
   d="m 48.550769,6.4892588 c 0,0.835672 -0.677446,1.513118 -1.513118,1.513118 -0.835672,0 -1.513118,-0.677446 -1.513118,-1.513118 0,-0.835672 0.677446,-1.5131181 1.513118,-1.5131181 0.835672,0 1.513118,0.6774461 1.513118,1.5131181 z"
   sodipodi:cx="47.037651"
   sodipodi:cy="6.4892588"
   sodipodi:rx="1.513118"
   sodipodi:ry="1.513118" />
	<circle
   cx="16.87525"
   cy="6.4892588"
   r="1.5130093"
   id="circle6295"
   style="fill:#ffb700;fill-opacity:1"
   d="m 18.388259,6.4892588 c 0,0.8356119 -0.677397,1.5130093 -1.513009,1.5130093 -0.835612,0 -1.513009,-0.6773974 -1.513009,-1.5130093 0,-0.835612 0.677397,-1.5130093 1.513009,-1.5130093 0.835612,0 1.513009,0.6773973 1.513009,1.5130093 z"
   sodipodi:cx="16.87525"
   sodipodi:cy="6.4892588"
   sodipodi:rx="1.5130093"
   sodipodi:ry="1.5130093" />
	<circle
   cx="37.8013"
   cy="2.0130587"
   r="1.5130223"
   id="circle6297"
   style="fill:#ffb700;fill-opacity:1"
   d="m 39.314322,2.0130587 c 0,0.8356191 -0.677403,1.5130223 -1.513022,1.5130223 -0.835619,0 -1.513022,-0.6774032 -1.513022,-1.5130223 0,-0.8356192 0.677403,-1.51302234 1.513022,-1.51302234 0.835619,0 1.513022,0.67740314 1.513022,1.51302234 z"
   sodipodi:cx="37.8013"
   sodipodi:cy="2.0130587"
   sodipodi:rx="1.5130223"
   sodipodi:ry="1.5130223" />
	<circle
   cx="26.111555"
   cy="2.0130587"
   r="1.5131427"
   id="circle6299"
   style="fill:#ffb700;fill-opacity:1"
   d="m 27.624698,2.0130587 c 0,0.8356856 -0.677457,1.5131427 -1.513143,1.5131427 -0.835686,0 -1.513143,-0.6774571 -1.513143,-1.5131427 0,-0.8356857 0.677457,-1.51314274 1.513143,-1.51314274 0.835686,0 1.513143,0.67745704 1.513143,1.51314274 z"
   sodipodi:cx="26.111555"
   sodipodi:cy="2.0130587"
   sodipodi:rx="1.5131427"
   sodipodi:ry="1.5131427" />
	<path
   d="m 43.695549,31.233358 c -4.604,0 -8.753098,1.948801 -11.6954,5.052401 -2.942099,-3.1036 -7.091198,-5.052401 -11.695198,-5.052401 -8.896,0 -16.1338008,7.237402 -16.1338008,16.132902 0,8.896397 7.2377998,16.133797 16.1338008,16.133797 4.604,0 8.753099,-1.948799 11.695198,-5.052498 2.942302,3.103699 7.0914,5.052498 11.6954,5.052498 8.896,0 16.133301,-7.2374 16.133301,-16.133797 0,-8.8955 -7.237301,-16.132902 -16.133301,-16.132902 z M 20.304951,61.500057 c -7.7934,0 -14.1338008,-6.3409 -14.1338008,-14.133796 0,-7.793004 6.3403998,-14.132901 14.1338008,-14.132901 4.117899,0 7.818498,1.781197 10.404098,4.600598 -1.968799,2.6744 -3.147199,5.964401 -3.147199,9.532303 0,3.5681 1.1784,6.858196 3.1471,9.532699 -2.58559,2.819698 -6.2861,4.601097 -10.403999,4.601097 z M 32.00005,39.441658 c 1.537601,2.2617 2.438201,4.989502 2.438201,7.924602 0,2.934998 -0.9006,5.662999 -2.438201,7.924897 -1.5376,-2.261898 -2.4382,-4.989899 -2.4382,-7.924897 0,-2.9351 0.9006,-5.662902 2.4382,-7.924602 z m 11.695499,22.058399 c -4.118099,0 -7.818699,-1.781399 -10.404301,-4.600998 1.968602,-2.6744 3.147003,-5.964599 3.147003,-9.532799 0,-3.567901 -1.178401,-6.857902 -3.147102,-9.532302 2.585602,-2.819401 6.286301,-4.600598 10.4044,-4.600598 7.792999,0 14.133301,6.339897 14.133301,14.1329 0,7.792897 -6.340302,14.133797 -14.133301,14.133797 z"
   id="path6301"
   style="fill:#ffb700;fill-opacity:1"
   inkscape:connector-curvature="0" />
	<path
   d="m 31.66095,30.545858 c 0.163601,0.1036 0.349102,0.155301 0.535099,0.155301 0.1861,0 0.3721,-0.0517 0.535202,-0.155301 2.545898,-1.613199 7.082,-4.8593 8.8442,-8.450099 2.365799,-4.492199 2.2891,-8.920001 -0.196301,-11.280301 -1.333,-1.2665993 -3.224601,-1.8056989 -5.059501,-1.4462992 -1.626999,0.3192997 -3.04929,1.3096002 -4.1241,2.8418002 C 31.12085,10.677758 29.69705,9.6884585 28.07015,9.3691588 c -1.8335,-0.3584003 -3.7266,0.1807003 -5.058599,1.4462992 -2.485401,2.360301 -2.562,6.788102 -0.209002,11.2549 1.7759,3.617201 6.3125,6.863201 8.858401,8.4755 z M 24.388451,12.264659 c 0.679199,-0.644501 1.621099,-1.0029 2.575698,-1.0029 0.2407,0 0.482401,0.0234 0.720702,0.0703 1.4888,0.292 2.767099,1.4697 3.599599,3.3154 0.161601,0.358399 0.518599,0.5889 0.911599,0.5889 0.3936,0 0.75,-0.230501 0.911701,-0.5889 0.831501,-1.8457 2.108799,-3.0234 3.597099,-3.3154 1.1856,-0.231501 2.4468,0.125999 3.297402,0.9326 1.79,1.701199 1.710899,5.277299 -0.209,8.9248 -1.4814,3.0166 -5.471703,5.9258 -7.597202,7.3213 -2.125899,-1.3955 -6.1176,-4.3057 -7.611298,-7.3467 -1.907202,-3.622101 -1.986301,-7.1982 -0.1963,-8.8994 z"
   id="path6303"
   style="fill:#ffb700;fill-opacity:1"
   inkscape:connector-curvature="0" />
</g>
<g
   id="g6305">
</g>
<g
   id="g6307">
</g>
<g
   id="g6309">
</g>
<g
   id="g6311">
</g>
<g
   id="g6313">
</g>
<g
   id="g6315">
</g>
<g
   id="g6317">
</g>
<g
   id="g6319">
</g>
<g
   id="g6321">
</g>
<g
   id="g6323">
</g>
<g
   id="g6325">
</g>
<g
   id="g6327">
</g>
<g
   id="g6329">
</g>
<g
   id="g6331">
</g>
<g
   id="g6333">
</g>
</svg>